<?xml version="1.0" encoding="UTF-8"?>
<svg id="Layer_2" data-name="Layer 2" xmlns="http://www.w3.org/2000/svg" viewBox="0 0 87.95 71.1">
  <g id="Layer_2-2" data-name="Layer 2">
    <path d="M37.06,27.8c-1.4.72-1.25,3.09-.67,4.09.58,1,2.25,2.8,2.84,4.11.58,1.31,1,2.14,1,2.14,0,0-10.67-.17-16.59,0-5.92.17-9.84-2.25-13.34-3.34s-9.67-2.75-9.67-2.25,5.51,3.4,6.29,3.44.07,1.33.58,1.7,2.61.35,2.91.45.68,1.58,1.97,1.28,2.07-.32,2.41.04,4.34,1.59,5.83,1.28,5.12-1.19,5.15-.37.84,2.31,2.28,2.31.38.58.82.96,1.73.19,2.06.34-.56.47-.02.83,1.46.12,1.79.19-.24.75.64,1.01,3.4.31,3.77.38.09,1.49,1.13,1.72,2.76.5,3.18.68,1.41.59,2.78.54,4.93.54,4.93.54c0,0-.29,1.3.19,2.1s1.14,2.7,3.61,3.04c.48.07.68-.2.72,0s-.52,2.12-.76,2.76-2.04,7.49-2,8.17.96,1.32,1.4,1.28.24.6,1,.96,2.96,1.28,3.65,1.28,1.24,0,2.04.44,2.68.4,3.37,0,1.76.72,2.84.52,2.16-1.48,2.56-1.52,2,.36,2.8-.16.96-2,1.28-2.16,1.72.32,2.32-.52.24-2.12.4-2.4,1.48-.44,2.04-1.4.16-2.16.28-2.44,1.68.08,2.16-2.04c.48-2.12-.64-3-.64-3.12s1.96-.24,1.16-1.88c-.8-1.64-4.89-1.32-4.89-1.6s-1.36-1.08-2.44-1.24-5.97-.2-7.01-.8-4.73-4.13-4.73-4.13c0,0,1.32-.08,1.76-1.04s.48-2.04.8-2.08,1.76.88,2.36.16,2.24-.48,2.64-1.48c.4-1,.8-2.84,1.04-2.72s.6,1.68,1.52,1.04,2.36-1.97,2.4-2.89-.12-.48.92-1.6.36-2.28,1.12-2.44,1.92-.52,2.2-1.12-.2-2.2.2-2.32,2.23-1.4,2.28-2.12-.63-.32-.63-.76,2.12-1.64,2.4-3-.72-.76-.88-1.12,1.72-.56,2.32-2.24c.6-1.68.4-2.08,0-2.4s1.96-2.45,2-3.37c.04-.92-.92-.56-.88-.88s2.08-2.48,2.08-3.53-.32-.2-1.52.52,2.48-4.41,2.2-4.97-2.88,3.08-3.33,3.08,3.93-6.33,3.81-7.05-5.45,8.57-8.09,10.66c-2.64,2.08-8.85,7.37-10.3,8.13s-8.49,6.73-10.06,8.25c-1.56,1.52-5.41,4.37-8.13,5.21-2.72.84-6.29.12-7.29-.76s-2.48-2.6-3.41-3.41-1.93-1.5-2.99-.95Z" style="fill: none; stroke: #000; stroke-miterlimit: 10; stroke-width: 1.25px;"/>
  </g>
</svg>