<?xml version="1.0" encoding="UTF-8"?>
<svg id="Layer_2" data-name="Layer 2" xmlns="http://www.w3.org/2000/svg" viewBox="0 0 57.03 96.5">
  <g id="Layer_2-2" data-name="Layer 2">
    <path d="M3.6,37.61c-.39-1.36,2.23.74.59-2.82-1.63-3.57-3.42-8.47-3.57-13.53s2.96-11.74,4.45-13.08c1.49-1.34,5.95-6.24,6.4-4.61s-3.3,6.16-3.45,7.05c-.15.89,4.51-.74,5.33.15s-1.18,4.14-1.55,4.81,4.22,1.7,4.07,3.03-1.55,1.78-1.04,2.52,1.27,2.07,1.04,2.89c-.23.81,2.17.59,2.34,2.74s.62,11.77,1.06,11.92,2.22-13.84,4.14-16.14c1.92-2.29,12.43-19.76,13.32-21.32s1.26.15.44,2.81c-.81,2.66,1.04,1.48,2.22.44,1.18-1.04.96.37-.3,2.22-1.26,1.85-2.22,2.96-1.78,3.03s2.44-.52,2.22.59c-.22,1.11-3.48,4.44-3.33,4.81s1.04,1.63.3,2.89-1.78,2-1.85,2.66-.52,3.26-1.41,4.07-1.85,1.92-1.7,3.11c.15,1.18-1.41,3.4-1.33,4.59.07,1.18,1.63,10.73.44,11.84s-1.63-.37-1.41,1.55c.22,1.92-.89,4.89-1.41,6.07-.52,1.18-.96,3.03-.59,4s1.78,1.92,2.81,3.92c1.04,2,1.78,4.81,3.92,5.33s7.11.74,10.51.44,6.29-.85,6.37.13-1.33,2.68-.81,2.75,6.88-1.11,6.29,1.41-1.26,2.81-2.15,2.81.67,3.55-.81,4.96-3.48,2.29-3.63,3.7-.15,2.66-2.07,4.14c-1.92,1.48-2.59,1.41-2.96,1.92s.15,2.44-1.78,3.55-5.4-.3-5.63,0,.07,3.85-2.52,4.66-4.29-.96-5.18-.96-1.33,1.17-4.44,1.18c-3.11,0-3.92-2.66-4.59-2.66s-1.41.52-3.48-.15-3.26-2.96-4-3.11-2,.3-3.33-.67c-1.33-.96-1.41-2.07-2.81-2.07s-.3-3.33-1.63-3.4-3.33-.89-2.15-1.78c1.18-.89,12.36-9.99,12.51-10.66s-3.63-1.78-4.37-4.59-.52-5.33-1.33-6.88c-.81-1.55-3.26-6.22-3.4-8.14s-.74-7.62-1.48-8.36-1.23-4.71-1.54-5.8Z" style="fill: none; stroke: #000; stroke-miterlimit: 10; stroke-width: 1.25px;"/>
  </g>
</svg>