<?xml version="1.0" encoding="UTF-8"?>
<svg id="Layer_2" data-name="Layer 2" xmlns="http://www.w3.org/2000/svg" viewBox="0 0 95.98 74.41">
  <g id="Layer_2-2" data-name="Layer 2">
    <path d="M45.06,23.63c-2.04-.35-2.8-5.6-8.05-5.95s-10.96-.02-12.14,0c-2.39.05-9.21-.25-10.31-.22s-4.92-1.7-6.08-2.28,3.36,2.14,3.13,2.14S2.62,14.55,1.87,15.09s10.2,3.33,10.6,3.73-10.08,0-11.3.06-.46,1.62,4.34,1.85,8.05.41,8.05.93-12.38,1.27-12.91,1.74,4.74,1.27,6.02,1.27,8.57-.64,7.94,0-9.56,3.13-9.91,3.53,3.42,1.56,6.37,1.16,3.19-.23.93,1.27-4.92,1.68-4.06,2.03,5.56,1.04,6.95.64,2.61-.7.7,1.1c-1.91,1.8-.29,1.91,2.66,1.85s1.8.35.52,1.8,4.63.81,4.63,1.22.23,1.51,1.56,1.68,2.72.29,3.24-.41-.23,1.22.41,1.51,5.62-.06,6.26.52,1.74,3.48,3.24,4.23,2.14-.41,3.77.98,2.55,3.24,6.02,4,7.01.12,7.01.98-.23,3.24-1.68,6.26-3.82,5.45-3.82,6.78,1.91,1.51,2.49,1.85-.06,1.97,1.45,2.55,3.65,1.85,4.69,1.85,2.03-.41,2.84,0,2.03,1.22,4.11,1.04,1.97-.59,3.59.02,4.23.96,5.45.27,1.1-.35,3.19-.52,4.34-.52,4.4-2.09c.06-1.56-.7-2.26.64-1.74s3.19.98,4.23-.35-.06-3.3,1.56-4.17,3.01-1.74,3.13-3.36c.12-1.62,1.33-.46,2.49-3.36,1.16-2.9-.52-5.39.64-5.97s1.97-3.13-1.22-3.77-4.46-.64-4.63-1.1-3.3-2.66-5.68-3.01-5.45.52-6.2.43-6.14-4.26-6.14-4.78-.61-4.96-1.86-6.5-1.15-6.05-2.02-9.5c-.86-3.46-3.36-8.74-3.17-11.52s1.25-3.55-1.44-6.82c-2.69-3.26-10.94-4.99-11.9-4.61s.39,2.67,1.69,3.12-2.56.85-2.65,1.79,3.05,2.06,4.17,2.38-3.05,2.65-2.92,3.19,6.37,1.57,6.55,1.93-5.34,1.93-5.16,3.19,2.02,1.17,1.7,1.62-2.06.18-1.84,1.75,1.44,1.93,1.39,2.15-.4,1.93-2.56,2.42-4.1-.37-5.39-.59Z" style="fill: none; stroke: #000; stroke-miterlimit: 10; stroke-width: 1.25px;"/>
  </g>
</svg>