<?xml version="1.0" encoding="UTF-8"?>
<svg id="Layer_2" data-name="Layer 2" xmlns="http://www.w3.org/2000/svg" viewBox="0 0 86.34 63.3">
  <g id="Layer_2-2" data-name="Layer 2">
    <path d="M40.13,14.36c-1.17.13-1.77,1.63-2.2,1.83s-1.18.89-1.18.89c0,0,.92.55,1.04.78l.12.23s-4.96,1.82-6.64,2.08-6.32,1.92-6.89,1.94-10.62.11-11.02.14,2.22,1.47,4.3,1.53-5.71,1.67-8.6,1.93-7.64.29-8.08.29-.63.32.49.43,11.22.23,12.2,0-1.99,1.18-4.21,1.53-5.34.55-6.49.52-1.62,0-1.21.32,5.05.95,7.59.89,6.32-1.33,6.38-1.07-4.3,1.93-5.63,2.39-4.15.84-4.73,1.04,5.65.61,7.64.46,5.14-1.38,5.22-1.15-4.7,3.23-6.06,3.63-2.6.98-1.56.95,7.21-.98,8.11-1.3,1.41-.43.63.23-4.13,2.28-4.36,2.6,2.51.38,3.26.35,4.3-1.85,4.67-1.76-2.77,2.54-2.77,2.91,3.87-.09,5.16-.46-.92,1.21-.89,1.5,2.88.58,3.49.35.26.55,1.18.63,2.37-.35,2.77-.29,0,.87,1.47,1.01,1.9-.4,2.19-.35,1.88,1.44,3.32,1.96,4.67.66,5.11,1.04,1.44,2.78,2.53,2.64,1.76-.57,2.08-.43,1.7.65,3.54-.16c1.84-.81,2.89,1.35,3.46,1.49s1.06.22,1.06.22c0,0,1.54,11.47,2.52,12.69s1.72,1.3,2.2,1.3,1.06.5,2.28.56,3.76-.05,4.37-.21,1.96.05,3.42-.72,2.94-.32,3.92-1.43c.98-1.11,1.14-1.83,1.77-1.8s2.28-1.75,2.65-2.65.42-.11,1.4-1.27.11-1.62.69-1.8,1.72-1.09,2.04-2.57c.32-1.48.19-2.04,1.01-3.1s.19-2.15.66-3.29c.48-1.14-.24-2.57-.24-3.13s-.45-1.8-1.09-1.85-4.42.29-5.01-.11-2.6-.4-4.64-.61-5.64-.53-5.64-.53c0,0,1.3-.9,1.35-2.23s-.36-7.34.06-7.83,1.91-1.32,1.3-3.62c-.61-2.3.81-.79,1.3-2.42s-.45-1.32.2-2.13,1.06-1.34,1.04-2.17.63-1.65,1.46-1.89,2.3-2.32,2.38-3.68c.08-1.36-.19-3.4.03-4.16s1.41-1.76,1.41-1.76c0,0-.89-.85-1.38-.74s2.56-2.93,2.55-3.31-2.72,2.03-2.88,2.01,2.74-2.86,2.78-3.05-3.79,2.75-4.18,2.8,1.15-1.82,1.13-2.15-4.25,3.25-5.05,3.67-4.81,2.66-6.16,3.13-5.78,1.89-7.29,3.2-3.12,2.85-3.82,5.94c-.69,3.08-.69,4.55-1.43,4.63s-2.74.12-4.32-.27-4.43-3.93-5.63-5.51-2.2-1.87-3.68-1.71Z" style="fill: none; stroke: #000; stroke-miterlimit: 10; stroke-width: 1.25px;"/>
  </g>
</svg>