<?xml version="1.0" encoding="UTF-8"?>
<svg id="Layer_2" data-name="Layer 2" xmlns="http://www.w3.org/2000/svg" viewBox="0 0 91.08 70.75">
  <g id="Layer_2-2" data-name="Layer 2">
    <path d="M44.27,22.74l1.8,1.44s.43,1.37.86,1.66,1.01,2.45,1.15,3.31,1.33,2.88,1.24,3.96-.23,2.95-1.53,3.6-4.83,3.67-10.01,4.61-14.84,4.76-18.52,5.55-14.88,2.01-18.23,2.52c-1.25.19,5.68.99,4.49,1.16s-4.9.22-5.39.53,8,1.1,7.78,1.81-4.29.71-4.29,1.02,6.1,1.24,8,1.46-3.31,1.28-2.92,1.59,6.8.31,7.16.31-2.03,1.55-1.68,1.99,4.77-.31,5.26-.18-.49,1.24-.27,1.37,3.53.27,4.99-.22.04.35.22.8,4.02.31,4.86-.93-.31,1.77.13,1.77,3.31.13,3.89-1.02.75-.53.88-.18.97,2.04,2.74,1.2.97-.49,1.86-.05,1.81-.62,2.21-.62,1.55.75,2.12.18.27-1.06.53-1.06,1.55.35,2.25.04.4-1.59,1.06-1.55,1.46.57,2.41-.27.11-1.06,1.17-1.19c0,0,1.15.31,1.86-.09s.18-.97,1.19-1.06,1.68-.09,1.68-.97,1.15-1.02,2.3-1.28,1.1-2.52,1.28-3.14.57-.57.88-.35,2.03,2.21,3,2.3,2.34,1.33,2.43,1.59.09,4.95,0,5.96-.44,8-.13,8.39,1.59.13,1.99.66,1.68,1.15,2.56.88.93.44,1.86.35,1.41-1.02,2.34-.71,1.28.31,2.39,0,2.47.31,2.96.04,1.1-1.59,1.68-1.59,2.25-.22,2.65-.71.66-2.16,1.33-2.12,1.81-1.24,1.81-2.08.27-1.28.62-1.37,1.02-1.46,1.1-2.74,1.1-.75,1.19-2.03,0-2.69.53-2.87,1.46-2.56.62-3.09-3.62-1.59-4.06-1.41-1.99-1.68-3.8-1.9-2.61-.84-3.71-.57-1.46.4-1.46.4c0,0-2.39-1.19-3.49-2.12s-2.78-3.05-2.78-3.05c0,0,2.16.04,2.3-.58s1.06-.18,1.72-.71.88-.93.88-.93c0,0,.96,1.13,1.46.36s.13-3.49.35-3.51.99.57,1.54.31.24-1.05.46-1.18,1.56.5,1.8-.22.02-1.49.11-1.84,1.69.18,2.02-.31-.02-.75.15-1.08.7.04.81-.7-.86-2.26-.81-2.46,1.51.22,1.67-.79-.97-1.6-.97-2.11,1.89-.35,2.35-1.12.13-2,.26-2.46,1.32-.75,1.29-1.71-1.4-1.49-1.4-1.82,1.51-1.45,1.58-2.61-1.14-1.19-1.14-1.71,1.08-4.63.93-5.61-3.26,1.34-3.87,1.45,3.23-4.33,2.88-5.44-3.69,2.41-4.25,2.41,1.02-7.53.41-8.2-9.21,13.3-11.18,15.27-6.41,5.13-7.69,7.89-3.94,5.23-5.33,5.33-4.7-1.24-5.27-1.5-2.44-2.05-2.56-2.49-1.31-3.7-2.49-4.09-2.9.34-3.16.73-1.9,1.44-1.9,1.44Z" style="fill: none; stroke: #000; stroke-miterlimit: 10; stroke-width: .25px;"/>
  </g>
</svg>