<?xml version="1.0" encoding="UTF-8"?>
<svg id="Layer_2" data-name="Layer 2" xmlns="http://www.w3.org/2000/svg" viewBox="0 0 74.44 70.35">
  <g id="Layer_2-2" data-name="Layer 2">
    <path d="M20.15,19.93c.22,1.53.88,2.14.88,3.24s.88,4.05,0,4.13-7.22-2.8-9.87-5.45c-2.65-2.65-7.73-8.84-8.47-12.45C1.95,5.78,1.66.7,1,.63s-.29,2.36,0,6.34c.29,3.98,1.77,11.64,5.82,16.06s5.79,6.95,7.59,9.21c1.8,2.27,8.55,11.05,11.05,13.63s5.82,4.27,7.51,3.39.81-3.24,1.1-3.68,1.33,1.77,3.68,2.95,3.98.81,4.13,1.4,1.4,9.72,1.47,11.27c.07,1.55.15,6.56.96,7.07s1.92.22,2.21.37,1.25,1.1,2.21,1.1,3.61,0,4.49-.52,2.65,0,3.17-.29,1.69-1.62,2.14-1.84,2.5.15,3.39-.44,1.55-2.14,1.84-2.43,2.14,0,2.8-.66.37-2.43.74-2.87,1.84-.52,2.36-1.4-.52-2.28,0-2.8,1.99-.37,1.99-1.77.22-1.99,0-2.43,1.77-1.03,1.77-3.09-1.03-3.46-1.03-3.98,2.36-.96,1.03-2.43-5.72-2.22-9.58-2.5-7,.22-7.73.07-4.79-2.73-5.23-3.09-2.21-7.81-3.39-10.53c-1.18-2.73-3.14-7.48-5.3-10.68-2.45-3.62-2.58-5.97-8.84-8.47C27.07,5.05,14.33,2.54,10.65,2.84s-8.62.81-8.1,1.25,5.38,1.33,5.52,1.84-5.16-.07-4.79,1.03,5.3,1.84,5.75,2.06-2.21.52-1.84,1.4c.37.88,6.85,1.4,7.37,1.62s-2.73,1.69-2.43,2.5,5.23,1.77,5.82,1.84-2.21.74-1.99,1.55,4.09,1.24,4.2,1.99Z" style="fill: none; stroke: #000; stroke-miterlimit: 10; stroke-width: 1.25px;"/>
  </g>
</svg>