<?xml version="1.0" encoding="UTF-8"?>
<svg id="Layer_2" data-name="Layer 2" xmlns="http://www.w3.org/2000/svg" viewBox="0 0 56.99 94.98">
  <g id="Layer_2-2" data-name="Layer 2">
    <path d="M5.21,33.07c-1.76-.09-3.21.96-3.43,1.44s-1.12.13-1.15.26,1.09,1.73,1.28,1.79.35,2.02.83,2.6.61,1.22,1.03,4.13,1.96,9.71,2.47,10.99,2.45,7.21,2.62,8.76c.17,1.55.28,5.15.66,5.71s2.94,3.77,2.94,3.77c0,0-6.37,6.48-7.53,7.59s-2.66,1.72-2.11,3.43,3.66,5.04,4.21,4.76.95,1.27,2.33,1.49,2.57.31,2.92.11-.22.81.48,1.35,2.88,1.94,3.88,1.96,1.11-.35,1.59-.35.48.83,2.2,1.07,1.65-.65,2.37-.5,1.24,1.01,2.97.91,3.21-1.48,3.64-1.44,2.15.38,3.45.14,2.97-.34,3.49-.57.53-1.2,2.35-1.29,3.11-2.39,3.69-2.49,1.87-.38,2.01-1.1.77-.72,1.15-1.29,2.97-3.4.67-4.98c-2.3-1.58-10.48-8.09-11.1-8.52s-1.4-1.27-1.93-1.42-2.08-2.42-2.98-4.18c-.91-1.75-.99-3.36-.99-3.68s.67.38,1.17-.26.61-4.44.67-5.14.7.12,1.14.41,1.14,1.02,1.23-1.05c.09-2.07.56-2.07,1.02-1.58s2.54,1.34,2.13-.61.03-3.59.2-3.92.38,1.34.99,1.11,1.11-2.31,1.14-3.3.99-.47,1.05-2.22c.06-1.75-.32-1.93.61-2.02s1.9-1.05,2.07-2.4-.67-1.58.03-1.9,1.96-1.96,1.81-3.04-.35-1.02.5-1.75.96-1.61.94-2.6-.82-1.61.5-2.81c1.32-1.2,1.17-2.19,1.2-2.83s3.16-3.21,3.1-4.24-.56-.56-1.4-.47,4.71-4.3,4.33-5.9c-.38-1.61-3.8.5-4.09.5s4.62-5.03,5.52-6.58.47-2.89-2.13-1.11-2.95,1.87-3.19,1.78,7.04-8.59,6.6-9.38-7.42,4.27-8.12,4.5-1.7.44-.35-1.02,4.18-3.65,4.38-4.62-3.42-.26-5.29.91c-1.87,1.17-9.86,6.38-10.4,6.82s-1.01.22-.92-.27.31-1.44-.47-1.1-5.89,5.22-6.68,6.43c-.8,1.21-2.36,2.96-2.52,3.56s-4.23,4.58-4.61,5.25-3.53,3.74-4.94,7.32c-1.41,3.57-3.68,11.08-3.98,11.23s-1.21-1.39-2.15-2.06-2.01-5.94-5.1-6.1Z" style="fill: none; stroke: #000; stroke-miterlimit: 10; stroke-width: 1.25px;"/>
  </g>
</svg>